<?xml version="1.0" encoding="UTF-8"?>
<svg width="80px" height="80px" viewBox="0 0 80 80" version="1.1" xmlns="http://www.w3.org/2000/svg" xmlns:xlink="http://www.w3.org/1999/xlink">
    <title>Combined Shape</title>
    <defs>
        <linearGradient x1="16.0090613%" y1="28.5555049%" x2="77.5646237%" y2="90.3060258%" id="linearGradient-1">
            <stop stop-color="rgb(255,255,0)" offset="0%"></stop>
            <stop stop-color="rgb(255,0,0)" offset="100%"></stop>
        </linearGradient>
    </defs>
    <g id="Page-1" stroke="none" stroke-width="1" fill="none" fill-rule="evenodd">
        <g id="Macbook-Air" transform="translate(-545.000000, -246.000000)" fill="url(#linearGradient-1)">
            <path d="M585,326 C562.90861,326 545,308.09139 545,286 C545,263.90861 562.90861,246 585,246 C607.09139,246 625,263.90861 625,286 C625,308.09139 607.09139,326 585,326 Z M585,310.411765 C598.482245,310.411765 609.411765,299.482245 609.411765,286 C609.411765,272.517755 598.482245,261.588235 585,261.588235 C571.517755,261.588235 560.588235,272.517755 560.588235,286 C560.588235,299.482245 571.517755,310.411765 585,310.411765 Z" id="Combined-Shape"></path>
        </g>
    </g>
</svg>